<svg xmlns="http://www.w3.org/2000/svg" width="45" height="51" fill="none" viewBox="0 0 45 51"><path fill="url(#a)" fill-rule="evenodd" d="M.888 1.267C.324 1.87 0 2.8 0 4.009v42.974c0 1.208.324 2.138.909 2.721l.153.129 24.15-24.08v-.54L1.04 1.137z" clip-rule="evenodd"/><path fill="url(#b)" fill-rule="evenodd" d="m33.246 33.811-8.055-8.034v-.562l8.058-8.035.174.108 9.53 5.4c2.73 1.534 2.73 4.06 0 5.616l-9.53 5.4c-.003 0-.177.107-.177.107" clip-rule="evenodd"/><path fill="url(#c)" fill-rule="evenodd" d="m33.42 33.704-8.23-8.208L.889 49.728c.887.95 2.381 1.058 4.051.128z" clip-rule="evenodd"/><path fill="url(#d)" fill-rule="evenodd" d="M33.42 17.29 4.94 1.16C3.271.207 1.774.336.887 1.287l24.3 24.208z" clip-rule="evenodd"/><path fill="#000" fill-rule="evenodd" d="M33.246 33.53 4.96 49.554c-1.58.907-2.99.843-3.898.021l-.153.153.153.128c.908.82 2.318.886 3.898-.02l28.481-16.132z" clip-rule="evenodd" opacity="0.2"/><path fill="#000" fill-rule="evenodd" d="m42.95 28.023-9.725 5.507.174.174 9.53-5.4c1.365-.778 2.037-1.792 2.037-2.808-.087.93-.78 1.815-2.015 2.527" clip-rule="evenodd" opacity="0.12"/><path fill="#fff" fill-rule="evenodd" d="m4.94 1.44 38.01 21.532c1.236.69 1.929 1.597 2.037 2.526 0-1.013-.672-2.03-2.036-2.807L4.939 1.159C2.21-.396 0 .899 0 4.009v.28C0 1.18 2.21-.093 4.94 1.44" clip-rule="evenodd" opacity="0.25"/><defs><linearGradient id="a" x1="23.0433" x2="-15.6262" y1="3.54677" y2="13.8806" gradientUnits="userSpaceOnUse"><stop stop-color="#00A0FF"/><stop offset="0.007" stop-color="#00A1FF"/><stop offset="0.26" stop-color="#00BEFF"/><stop offset="0.512" stop-color="#00D2FF"/><stop offset="0.76" stop-color="#00DFFF"/><stop offset="1" stop-color="#00E3FF"/></linearGradient><linearGradient id="b" x1="46.5045" x2="-0.663243" y1="25.4971" y2="25.4971" gradientUnits="userSpaceOnUse"><stop stop-color="#FFE000"/><stop offset="0.409" stop-color="#FFBD00"/><stop offset="0.775" stop-color="orange"/><stop offset="1" stop-color="#FF9C00"/></linearGradient><linearGradient id="c" x1="28.9453" x2="-1.97621" y1="29.9609" y2="82.1569" gradientUnits="userSpaceOnUse"><stop stop-color="#FF3A44"/><stop offset="1" stop-color="#C31162"/></linearGradient><linearGradient id="d" x1="-5.22997" x2="8.56501" y1="-13.0286" y2="10.2829" gradientUnits="userSpaceOnUse"><stop stop-color="#32A071"/><stop offset="0.069" stop-color="#2DA771"/><stop offset="0.476" stop-color="#15CF74"/><stop offset="0.801" stop-color="#06E775"/><stop offset="1" stop-color="#00F076"/></linearGradient></defs></svg>