<svg width="177" height="197" viewBox="0 0 177 197" fill="none" xmlns="http://www.w3.org/2000/svg">
<path opacity="0.3" d="M88.0124 196.551C136.62 196.551 176.025 187.902 176.025 177.233C176.025 166.564 136.62 157.916 88.0124 157.916C39.4045 157.916 0 166.564 0 177.233C0 187.902 39.4045 196.551 88.0124 196.551Z" fill="#C3C3C3"/>
<path d="M61.199 86.5288V168.365C61.199 171.623 58.5477 174.274 55.2898 174.274H55.2712C52.0133 174.274 49.362 171.623 49.362 168.365V86.5288H61.199Z" fill="#D4CBDA"/>
<path d="M56.464 171.111C54.8959 171.111 53.6235 169.839 53.6235 168.271V92.5141C53.6235 90.946 54.8959 89.6736 56.464 89.6736C58.0338 89.6736 59.3046 90.946 59.3046 92.5141V168.271C59.3046 169.839 58.0338 171.111 56.464 171.111Z" fill="#ECE5F1"/>
<path d="M61.1989 86.5288V98.6496C60.5736 98.7443 59.9484 98.8203 59.3046 98.8575C57.9984 98.991 56.6719 99.0467 55.3454 99.0467C54.7777 99.0467 54.1896 99.0281 53.6219 99.0096C52.1822 98.9521 50.7628 98.8389 49.3602 98.631V86.5288H61.1989Z" fill="#ACA1B5"/>
<path d="M99.361 51.3019C99.361 52.6655 99.3036 54.0106 99.1718 55.354C97.1254 77.7588 78.281 95.3157 55.3455 95.3157C31.0278 95.3157 11.33 75.5993 11.33 51.3002C11.33 36.5838 18.5454 23.5539 29.6439 15.5798C36.8779 10.3533 45.7425 7.28467 55.3438 7.28467C79.6463 7.28636 99.361 26.9825 99.361 51.3019Z" fill="#FEAB09"/>
<path d="M99.361 51.3019C99.361 52.6655 99.3035 54.0106 99.1717 55.354C93.7746 71.6046 78.4516 83.3267 60.3844 83.3267C37.8275 83.3267 19.5322 65.0314 19.5322 42.4559C19.5322 32.1718 23.3579 22.7597 29.6455 15.5815C36.8795 10.355 45.7441 7.28638 55.3455 7.28638C79.6463 7.28638 99.361 26.9825 99.361 51.3019Z" fill="#FEB809"/>
<path d="M80.3187 66.9144C93.2639 56.7747 95.2443 37.6854 84.742 24.2773C74.2397 10.8692 55.2317 8.21977 42.2865 18.3595C29.3413 28.4993 27.3609 47.5886 37.8632 60.9967C48.3655 74.4047 67.3735 77.0542 80.3187 66.9144Z" fill="#FEC715"/>
<path d="M81.4898 24.7793C80.0079 27.8514 75.6466 28.8162 71.7482 26.9355C67.8499 25.0548 65.8931 21.0398 67.3751 17.9695C68.857 14.8975 73.2183 13.9326 77.1167 15.8133C81.015 17.6941 82.9718 21.709 81.4898 24.7793Z" fill="#FEEA29"/>
<path d="M88.2118 33.5221C86.6775 34.7235 84.1969 34.1203 82.6727 32.1737C81.1468 30.227 81.1553 27.6738 82.6896 26.4723C84.2239 25.2709 86.7045 25.8741 88.2287 27.8208C89.7529 29.7657 89.7461 32.319 88.2118 33.5221Z" fill="#FEEA29"/>
<path d="M106.198 55.6569C106.198 58.9908 104.853 62.0206 102.675 64.1987C100.478 66.3768 97.4668 67.7405 94.1328 67.7405H16.5582C9.89201 67.7405 4.47456 62.3231 4.47456 55.6569C4.47456 52.3229 5.81963 49.3117 8.01635 47.1336C10.2131 44.9369 13.2243 43.5918 16.5582 43.5918H94.1345C95.8006 43.5918 97.3924 43.9331 98.8321 44.5381H98.8507C103.168 46.3766 106.198 50.6568 106.198 55.6569Z" fill="#FECE1F"/>
<path d="M98.8506 44.5395H98.832C97.3923 43.9329 95.8023 43.5933 94.1344 43.5933H19.5507C19.5896 45.0701 19.7214 46.5673 19.9107 48.0813C20.8958 55.4116 23.8884 62.1538 28.2818 67.7403H92.5055H94.1344C97.4684 67.7403 100.48 66.3766 102.676 64.1985C104.854 62.0204 106.199 58.9906 106.199 55.6566C106.198 50.6566 103.168 46.3763 98.8506 44.5395Z" fill="#FEDD2E"/>
<path d="M91.5018 43.5933C91.5203 52.4765 87.6947 61.1315 80.3272 66.9072C79.9673 67.1911 79.5888 67.475 79.2103 67.7403H45.1003C42.4304 65.9406 39.9684 63.6865 37.8646 60.998C33.7737 55.7715 31.5769 49.6731 31.1798 43.5933H91.5018Z" fill="#FEEC42"/>
<path d="M84.18 50.0412C84.18 52.3089 86.7856 54.1491 89.9996 54.1491C93.2136 54.1491 95.8192 52.3106 95.8192 50.0412C95.8192 47.7735 93.2136 45.9333 89.9996 45.9333C86.7839 45.9333 84.18 47.7735 84.18 50.0412Z" fill="#FEFE6F"/>
<path d="M74.4333 49.3044C74.4333 50.8623 76.1822 52.1263 78.3384 52.1263C80.4945 52.1263 82.2435 50.8623 82.2435 49.3044C82.2435 47.7464 80.4945 46.4824 78.3384 46.4824C76.1822 46.4824 74.4333 47.7464 74.4333 49.3044Z" fill="#FEFE6F"/>
<path d="M96.8162 127.543L19.5677 154.563C16.4923 155.639 14.865 159.017 15.9414 162.091L15.9481 162.109C17.0229 165.185 20.4024 166.812 23.4761 165.736L100.725 138.716L96.8162 127.543Z" fill="#D4CBDA"/>
<path d="M18.5404 159.94C19.0575 161.42 20.678 162.201 22.1599 161.684L93.6682 136.671C95.1484 136.153 95.9291 134.532 95.412 133.052C94.8933 131.572 93.2728 130.791 91.7925 131.308L20.2842 156.32C18.8023 156.837 18.0216 158.458 18.5404 159.94Z" fill="#ECE5F1"/>
<path d="M96.8161 127.543L85.3746 131.545C85.4912 132.166 85.6264 132.782 85.8038 133.402C86.1097 134.679 86.4949 135.95 86.9326 137.2C87.1201 137.736 87.3314 138.285 87.5375 138.814C88.0664 140.154 88.6426 141.457 89.3017 142.711L100.725 138.714L96.8161 127.543Z" fill="#ACA1B5"/>
<path d="M117.469 79.891C116.181 80.3405 114.931 80.839 113.706 81.4085C93.2321 90.7361 82.8822 114.32 90.4541 135.97C98.4823 158.924 123.596 171.008 146.533 162.984C160.423 158.126 170.34 147.013 174.203 133.903C176.748 125.348 176.719 115.97 173.548 106.906C165.524 83.9685 140.423 71.8612 117.469 79.891Z" fill="#EC2200"/>
<path d="M117.469 79.891C116.181 80.3405 114.931 80.839 113.706 81.4084C100.148 91.8682 94.1412 110.202 100.106 127.257C107.553 148.549 130.864 159.779 152.173 152.325C161.881 148.931 169.502 142.21 174.201 133.905C176.746 125.35 176.718 115.971 173.546 106.907C165.524 83.9685 140.423 71.8612 117.469 79.891Z" fill="#FC320B"/>
<path d="M167.406 122.869C172.705 107.301 163.928 90.2319 147.803 84.744C131.679 79.2561 114.312 87.4278 109.013 102.996C103.715 118.564 112.491 135.633 128.616 141.121C144.741 146.609 162.108 138.438 167.406 122.869Z" fill="#FF401A"/>
<path d="M148.403 88.004C145.994 90.4171 146.523 94.8527 149.585 97.9113C152.647 100.97 157.082 101.492 159.492 99.0789C161.901 96.6659 161.373 92.2302 158.311 89.1717C155.249 86.1132 150.813 85.591 148.403 88.004Z" fill="#FF6842"/>
<path d="M137.932 84.5451C137.303 86.3903 138.692 88.5313 141.034 89.3289C143.377 90.1264 145.783 89.2765 146.411 87.4312C147.04 85.586 145.651 83.445 143.309 82.6475C140.969 81.8499 138.561 82.6999 137.932 84.5451Z" fill="#FF6842"/>
<path d="M111.1 74.876C107.954 75.976 105.537 78.2454 104.201 81.0217C102.871 83.8149 102.577 87.1066 103.678 90.253L129.291 163.478C131.491 169.771 138.393 173.095 144.686 170.895C147.833 169.795 150.23 167.53 151.562 164.737C152.91 161.939 153.186 158.652 152.084 155.506L126.472 82.2806C125.921 80.7074 125.074 79.3184 124.027 78.1592L124.02 78.1406C120.86 74.6715 115.82 73.225 111.1 74.876Z" fill="#FC5B31"/>
<path d="M124.02 78.1406L124.027 78.1592C125.074 79.3184 125.921 80.7074 126.472 82.2806L151.095 152.682C149.688 153.135 148.233 153.503 146.739 153.824C139.495 155.315 132.143 154.717 125.419 152.413L104.216 91.7907L103.678 90.253C102.578 87.1066 102.87 83.8132 104.2 81.0217C105.537 78.2471 107.953 75.9777 111.1 74.876C115.819 73.225 120.86 74.6715 124.02 78.1406Z" fill="#FC6342"/>
<path d="M127.34 84.7649C118.949 87.6798 112.043 94.1483 109.023 103.009C108.874 103.444 108.731 103.893 108.606 104.339L119.868 136.536C122.449 138.463 125.389 140.043 128.621 141.139C134.906 143.275 141.388 143.336 147.258 141.704L127.34 84.7649Z" fill="#FC7754"/>
<path d="M123.67 93.8072C121.529 94.5557 118.934 92.7037 117.873 89.6706C116.811 86.6374 117.687 83.5704 119.828 82.8219C121.969 82.0733 124.564 83.9253 125.625 86.9585C126.686 89.9916 125.811 93.0569 123.67 93.8072Z" fill="#FC9581"/>
<path d="M127.584 102.763C126.112 103.277 124.343 102.045 123.631 100.008C122.92 97.9723 123.535 95.9057 125.005 95.3903C126.475 94.8749 128.246 96.1085 128.957 98.1447C129.669 100.181 129.054 102.249 127.584 102.763Z" fill="#FC9581"/>
</svg>
