<svg width="177" height="181" viewBox="0 0 177 181" fill="none" xmlns="http://www.w3.org/2000/svg">
<path opacity="0.3" d="M96.012 181C140.74 181 177 169.867 177 156.134C177 142.401 140.74 131.268 96.012 131.268C51.2836 131.268 15.024 142.401 15.024 156.134C15.024 169.867 51.2836 181 96.012 181Z" fill="#C3C3C3"/>
<path d="M131.027 164.786C128.753 167.061 125.067 167.061 122.794 164.786L78.6307 120.576L86.8634 112.334L131.027 156.544C133.3 158.82 133.3 162.51 131.027 164.786Z" fill="#D4CBDA"/>
<path d="M127.106 159.228C125.954 160.381 124.085 160.381 122.933 159.228L88.3998 124.657C87.248 123.504 87.248 121.633 88.3998 120.48C89.5517 119.327 91.4189 119.327 92.5725 120.48L127.106 155.051C128.258 156.206 128.258 158.075 127.106 159.228Z" fill="#ECE5F1"/>
<path d="M86.2178 51.4721C86.7061 51.9609 87.1801 52.4676 87.6523 52.9726L87.6683 52.9887C94.6759 60.6232 98.8165 69.9552 100.086 79.6129C100.771 84.7999 100.641 90.0532 99.6464 95.1936C97.9025 104.509 93.4043 113.385 86.2178 120.579C67.1339 139.683 36.2346 139.683 17.1685 120.595C2.94046 106.354 -0.676004 85.5036 6.33159 67.8836C8.71038 61.9124 12.3286 56.301 17.1685 51.4542C36.2346 32.3678 67.15 32.3839 86.2178 51.4721Z" fill="#FEAB09"/>
<path d="M86.2178 51.4721C86.706 51.9609 87.18 52.4676 87.6522 52.9726L87.6683 52.9887C91.3026 58.6501 93.5669 64.9311 94.4147 71.3911C95.0336 76.1215 94.903 80.9522 94.0069 85.6665C92.3937 94.1999 88.2871 102.323 81.7034 108.914C64.2166 126.419 35.909 126.403 18.4383 108.914C7.30811 97.7719 3.24982 82.2235 6.32973 67.8836C8.70852 61.9124 12.3268 56.301 17.1666 51.4542C36.2345 32.3678 67.1499 32.3839 86.2178 51.4721Z" fill="#FEB809"/>
<path d="M63.0724 105.972C81.6959 96.9501 90.2225 76.0444 82.1173 59.2782C74.012 42.5121 52.3441 36.2346 33.7207 45.2569C15.0972 54.2792 6.57062 75.1849 14.6759 91.951C22.7812 108.717 44.449 114.995 63.0724 105.972Z" fill="#FEC715"/>
<path d="M100.086 79.6146C100.771 84.8016 100.641 90.0549 99.6463 95.1953C97.8703 97.8882 95.8492 100.4 93.5669 102.683C88.466 107.789 82.2078 111.77 75.413 114.169C71.5175 115.556 67.4593 116.421 63.3206 116.681C56.0357 117.154 48.7831 115.864 42.3782 113.01C39.7383 111.836 37.2612 110.368 34.979 108.67C29.6008 104.722 25.3637 99.5014 22.8382 93.6447C18.9266 84.542 19.3022 74.1483 23.8004 65.862C28.6403 57.0028 37.9945 51.2608 47.6921 51.2446C57.8118 51.1963 67.6078 57.8676 70.9309 67.1028C74.4508 76.9576 70.3442 88.6386 61.5606 93.745C57.2752 96.2409 52.4175 96.9267 48.2626 95.5713C43.1295 93.9563 39.4289 89.1113 39.445 84.1015C39.445 81.1974 40.8311 78.2771 43.1277 76.27C45.2632 74.3614 47.9836 73.4966 50.6075 73.8386C52.709 74.1161 54.2096 76.0408 53.9002 78.1464C53.6552 80.252 51.7325 81.7525 49.6148 81.4588C49.0121 81.3765 48.4093 81.8509 48.1804 82.0461C47.5454 82.585 47.1376 83.4158 47.1215 84.1176C47.1215 85.815 48.6365 87.6252 50.577 88.2608C52.6625 88.9143 55.3364 88.49 57.7152 87.1185C63.2884 83.8562 65.9784 76.0731 63.6962 69.7115C61.4479 63.4467 54.7337 58.8792 47.7261 58.9114C40.8813 58.9436 33.9881 63.2014 30.5648 69.5325C27.1916 75.6827 26.9304 83.7416 29.8958 90.5938C32.7307 97.2167 38.4184 102.814 45.5082 105.995C48.6704 107.399 52.092 108.344 55.628 108.785C57.9907 109.095 60.4034 109.161 62.8305 109.014C74.4007 108.264 85.2877 101.935 92.1004 92.6349C94.447 89.4372 96.3213 85.8974 97.5769 82.0962C97.9507 80.8697 98.9291 79.9566 100.086 79.6146Z" fill="#FEEA29"/>
<path d="M47.1215 84.1181C47.1215 85.8154 48.6365 87.6256 50.5771 88.2612C52.6625 88.9147 55.3364 88.4904 57.7152 87.1189C63.2884 83.8567 65.9784 76.0735 63.6962 69.712C61.4479 63.4471 54.7337 58.8796 47.7261 58.9119C40.8813 58.9441 33.9881 63.2018 30.5648 69.5329C27.1916 75.6832 26.9304 83.7421 29.8958 90.5942C32.7307 97.2172 38.4184 102.814 45.5082 105.996C48.6704 107.4 52.092 108.345 55.628 108.785C57.9907 109.095 60.4034 109.161 62.8305 109.015C74.4007 108.264 85.2877 101.935 92.1004 92.6354C89.9487 98.5744 86.461 104.153 81.7034 108.918C79.7306 110.893 77.6291 112.638 75.413 114.171C71.5175 115.559 67.4593 116.424 63.3206 116.683C56.0358 117.156 48.7831 115.867 42.3782 113.013C39.7383 111.838 37.2612 110.37 34.979 108.673C29.6008 104.725 25.3637 99.5036 22.8382 93.6469C18.9266 84.5442 19.3022 74.1505 23.8004 65.8642C28.6403 57.005 37.9945 51.263 47.6921 51.2468C57.8118 51.1985 67.6078 57.8698 70.9309 67.1051C74.4508 76.9598 70.3442 88.6408 61.5606 93.7472C57.2752 96.2431 52.4175 96.9289 48.2626 95.5735C43.1295 93.9585 39.4289 89.1135 39.445 84.1038C39.445 81.1996 40.8312 78.2794 43.1277 76.2723C45.2632 74.3636 47.9836 73.4988 50.6075 73.8408C52.709 74.1183 54.2096 76.0431 53.9002 78.1487C53.6552 80.2543 51.7325 81.7547 49.6148 81.461C49.0121 81.3787 48.4093 81.8531 48.1804 82.0483C47.5437 82.5836 47.1376 83.4162 47.1215 84.1181Z" fill="#FEFB4A"/>
<path d="M70.9309 67.1011C74.4508 76.9559 70.3442 88.6369 61.5606 93.7433C57.2752 96.2392 52.4175 96.9249 48.2626 95.5696C43.1295 93.9546 39.4289 89.1095 39.445 84.0998C39.445 81.1957 40.8311 78.2754 43.1277 76.2683C45.2632 74.3597 47.9836 73.4949 50.6075 73.8368C52.709 74.1144 54.2096 76.0391 53.9002 78.1447C53.6552 80.2503 51.7325 81.7507 49.6148 81.4571C49.0121 81.3747 48.4093 81.8492 48.1804 82.0444C47.5454 82.5833 47.1376 83.4141 47.1215 84.1159C47.1215 85.8133 48.6365 87.6235 50.577 88.2591C52.6625 88.9126 55.3364 88.4883 57.7152 87.1168C63.2884 83.8546 65.9784 76.0714 63.6962 69.7098C61.4479 63.445 54.7337 58.8775 47.7261 58.9097C40.8813 58.9419 33.9881 63.1997 30.5648 69.5308C27.1916 75.681 26.9304 83.7399 29.8958 90.5921C32.7307 97.215 38.4184 102.812 45.5082 105.994C48.6704 107.397 52.092 108.343 55.628 108.783C48.6043 110.66 41.4178 110.545 34.979 108.669C29.6008 104.721 25.3637 99.4997 22.8382 93.643C18.9266 84.5403 19.3022 74.1466 23.8004 65.8603C28.6403 57.0011 37.9945 51.2591 47.6921 51.2429C57.8118 51.1946 67.606 57.8677 70.9309 67.1011Z" fill="#FFFF6F"/>
<path d="M45.7443 43.2272C47.084 46.271 44.1221 50.5234 39.1284 52.7275C34.1348 54.9315 28.9998 54.2511 27.6601 51.2073C26.3205 48.1635 29.2824 43.9112 34.276 41.7071C39.2697 39.503 44.4047 40.1852 45.7443 43.2272Z" fill="#FEEA29"/>
<path d="M62.0686 45.4687C62.0686 47.5904 59.2463 49.3092 55.7658 49.3092C52.2852 49.3092 49.4628 47.5904 49.4628 45.4687C49.4628 43.347 52.2852 41.6282 55.7658 41.6282C59.2463 41.6282 62.0686 43.347 62.0686 45.4687Z" fill="#FEEA29"/>
<path d="M117.094 165.649C113.878 165.649 111.272 163.04 111.272 159.821V97.2976H122.915V159.821C122.915 163.04 120.31 165.649 117.094 165.649Z" fill="#D4CBDA"/>
<path d="M118.247 158.945C116.618 158.945 115.298 157.624 115.298 155.993V107.104C115.298 105.473 116.62 104.152 118.247 104.152C119.877 104.152 121.197 105.473 121.197 107.104V155.993C121.197 157.624 119.877 158.945 118.247 158.945Z" fill="#ECE5F1"/>
<path d="M165.449 53.807C165.449 54.4999 165.426 55.1911 165.403 55.884V55.9072C164.965 66.2669 161.3 75.7958 155.378 83.5252C152.198 87.6773 148.395 91.2994 144.062 94.2304C136.249 99.5839 126.798 102.674 116.636 102.674C89.6464 102.674 67.7991 80.8019 67.7991 53.8088C67.7991 33.6678 79.9684 16.3629 97.3694 8.86443C103.27 6.32554 109.791 4.91821 116.638 4.91821C143.6 4.91642 165.449 26.8121 165.449 53.807Z" fill="#EC2200"/>
<path d="M165.449 53.807C165.449 54.4999 165.426 55.1911 165.403 55.884V55.9072C163.974 62.4836 161.139 68.5283 157.175 73.6956C154.271 77.4788 150.769 80.8019 146.804 83.5019C139.635 88.3935 130.993 91.2314 121.681 91.2314C96.9509 91.2314 76.9458 71.1817 76.9458 46.4482C76.9458 30.6902 85.0588 16.8231 97.3659 8.86443C103.266 6.32554 109.787 4.91821 116.634 4.91821C143.6 4.91642 165.449 26.8121 165.449 53.807Z" fill="#FC320B"/>
<path d="M157.044 56.4948C163.157 38.9017 152.27 19.1238 132.728 12.3198C113.186 5.51574 92.3887 14.2621 86.2762 31.8552C80.1638 49.4484 91.0506 69.2262 110.593 76.0302C130.135 82.8343 150.932 74.088 157.044 56.4948Z" fill="#FF401A"/>
<path d="M155.376 83.5234C152.196 87.6755 148.394 91.2976 144.06 94.2286C140.902 94.875 137.698 95.2205 134.472 95.2205C127.258 95.2205 120.02 93.6055 113.522 90.4901C109.788 88.7139 106.309 86.4526 103.197 83.7078C97.7113 78.8861 93.4939 72.8414 90.981 66.2883C89.9436 63.5883 89.23 60.797 88.815 57.9824C87.8009 51.3845 88.4931 44.6935 90.8433 38.7634C94.508 29.5568 102.113 22.4737 111.149 19.7988C120.829 16.9609 131.499 19.5213 138.367 26.3752C145.557 33.5048 147.77 45.1554 143.599 54.0379C139.127 63.497 127.972 68.8505 118.155 66.2436C113.361 64.9741 109.443 62.0217 107.461 58.122C104.971 53.3468 105.778 47.3004 109.328 43.7714C111.38 41.7177 114.422 40.6327 117.464 40.8404C120.322 41.0015 122.857 42.3175 124.47 44.4159C125.761 46.1008 125.461 48.5233 123.755 49.7927C122.095 51.1087 119.675 50.8079 118.385 49.0998C118.017 48.6146 117.257 48.5233 116.956 48.5C116.126 48.4302 115.252 48.731 114.744 49.2144C113.545 50.414 113.338 52.7667 114.259 54.5894C115.273 56.5285 117.462 58.1202 120.113 58.8346C126.359 60.4729 133.758 56.8741 136.638 50.7596C139.473 44.7383 137.952 36.7545 132.973 31.8182C128.11 26.9965 120.228 25.1272 113.336 27.1809C106.606 29.1415 100.729 34.6561 97.9868 41.6013C95.3129 48.2923 95.3826 56.2742 98.1477 63.5435C99.3926 66.7735 101.144 69.8657 103.333 72.6803C104.785 74.5728 106.445 76.3257 108.266 77.9407C116.978 85.6004 129.147 88.8304 140.531 87.0775C144.45 86.4777 148.276 85.3013 151.848 83.5019C152.98 82.9003 154.318 82.9468 155.376 83.5234Z" fill="#FF8351"/>
<path d="M114.745 49.2146C113.547 50.4142 113.34 52.7668 114.261 54.5895C115.275 56.5286 117.464 58.1203 120.115 58.8347C126.36 60.473 133.76 56.8742 136.639 50.7598C139.474 44.7384 137.954 36.7547 132.974 31.8184C128.111 26.9966 120.229 25.1274 113.338 27.1811C106.607 29.1416 100.73 34.6562 97.9883 41.6015C95.3144 48.2925 95.3841 56.2744 98.1492 63.5437C99.3941 66.7737 101.145 69.8658 103.334 72.6804C104.787 74.573 106.446 76.3259 108.267 77.9409C116.979 85.6005 129.149 88.8305 140.533 87.0776C134.817 89.7544 128.41 91.2297 121.68 91.2297C118.891 91.2297 116.171 90.9755 113.52 90.492C109.786 88.7159 106.307 86.4545 103.195 83.7097C97.7093 78.888 93.4918 72.8434 90.9789 66.2903C89.9415 63.5902 89.2279 60.7989 88.8129 57.9843C87.7988 51.3864 88.491 44.6954 90.8412 38.7654C94.5059 29.5588 102.111 22.4757 111.147 19.8007C120.826 16.9628 131.497 19.5232 138.365 26.3771C145.555 33.5068 147.768 45.1573 143.597 54.0398C139.125 63.4989 127.97 68.8524 118.153 66.2455C113.359 64.9761 109.44 62.0236 107.459 58.1239C104.969 53.3487 105.776 47.3023 109.326 43.7733C111.377 41.7197 114.42 40.6347 117.462 40.8423C120.32 41.0035 122.855 42.3194 124.468 44.4179C125.759 46.1027 125.459 48.5253 123.753 49.7947C122.093 51.1107 119.673 50.8098 118.383 49.1017C118.015 48.6165 117.255 48.5252 116.954 48.5019C116.128 48.4303 115.251 48.7311 114.745 49.2146Z" fill="#FF9F74"/>
<path d="M143.601 54.0361C139.129 63.4952 127.974 68.8487 118.156 66.2418C113.363 64.9723 109.444 62.0199 107.463 58.1202C104.973 53.345 105.78 47.2986 109.33 43.7696C111.381 41.7159 114.424 40.6309 117.466 40.8386C120.324 40.9997 122.859 42.3157 124.472 44.4142C125.763 46.099 125.463 48.5215 123.756 49.7909C122.097 51.1069 119.677 50.8061 118.387 49.098C118.019 48.6128 117.259 48.5215 116.958 48.4982C116.128 48.4284 115.254 48.7292 114.746 49.2126C113.547 50.4122 113.34 52.7649 114.261 54.5876C115.275 56.5267 117.464 58.1184 120.115 58.8328C126.361 60.4711 133.76 56.8723 136.639 50.7578C139.474 44.7365 137.954 36.7527 132.975 31.8164C128.112 26.9947 120.229 25.1254 113.338 27.1791C106.608 29.1397 100.73 34.6543 97.9886 41.5995C95.3147 48.2905 95.3844 56.2724 98.1495 63.5417C99.3944 66.7717 101.145 69.8639 103.335 72.6785C97.0424 69.0331 92.0416 63.8658 88.815 57.9824C87.8009 51.3845 88.4931 44.6935 90.8433 38.7634C94.508 29.5568 102.113 22.4737 111.149 19.7988C120.829 16.9609 131.499 19.5213 138.367 26.3752C145.559 33.503 147.771 45.1536 143.601 54.0361Z" fill="#FFD1AE"/>
<path d="M142.652 19.3262C141.45 22.4273 136.351 23.3369 131.263 21.3602C126.174 19.3835 123.025 15.2672 124.226 12.1679C125.428 9.06682 130.528 8.15729 135.616 10.134C140.705 12.1106 143.854 16.2269 142.652 19.3262Z" fill="#FF6842"/>
<path d="M152.613 32.4664C151.114 33.9668 147.905 33.1843 145.444 30.7207C142.983 28.257 142.202 25.0431 143.7 23.5445C145.199 22.0441 148.408 22.8265 150.869 25.2902C153.332 27.7539 154.112 30.9678 152.613 32.4664Z" fill="#FF6842"/>
</svg>
